<svg xmlns="http://www.w3.org/2000/svg" width="70.691" height="48" viewBox="0 0 70.691 48">
  <g id="simple-explain" transform="translate(-237.504 -907.171)">
    <rect id="Rectangle_1659" data-name="Rectangle 1659" width="19" height="7" transform="translate(242 930)" fill="#fff"/>
    <path id="Path_361" data-name="Path 361" d="M55.839,18.428A18.455,18.455,0,0,0,37.407,36.784h0v3.043l-3.735,7.13c-.943,1.8-.052,3.273,1.98,3.273h1.755v6.779a3.863,3.863,0,0,0,3.853,3.852l5.289-.787.006,5.287h0v.044h0a1.057,1.057,0,0,0,1.305,1l19.056-3.374a1.645,1.645,0,0,0,1.306-1.558v-7.7c-.017-6.633,5.489-8.9,5.945-17.018C74.737,26.651,65.963,18.428,55.839,18.428ZM3.5,41.947v5.092a6.926,6.926,0,0,0,6.906,6.906H22.956a6.848,6.848,0,0,0,3.221-.8,6.7,6.7,0,0,0,5.092,1.17.473.473,0,0,0,.137-.89,5.8,5.8,0,0,1-2.516-2.862,6.848,6.848,0,0,0,.972-3.52V41.947a6.926,6.926,0,0,0-6.906-6.906H10.41A6.926,6.926,0,0,0,3.5,41.947Zm17.642,2.5a2.138,2.138,0,0,1,4.261-.254V44.7a2.138,2.138,0,0,1-4.261-.255Zm-6.577.139a2.138,2.138,0,1,1,2.138,2.138A2.139,2.139,0,0,1,14.569,44.583Zm-6.576.139a2.138,2.138,0,0,1,2.138-2.138,2.127,2.127,0,0,1,.832.168,2.139,2.139,0,0,1,0,3.941,2.1,2.1,0,0,1-.4.125,2.176,2.176,0,0,1-.431.043A2.138,2.138,0,0,1,7.993,44.722Z" transform="translate(234 888.743)" fill="#7b10ff"/>
    <path id="Path_362" data-name="Path 362" d="M2.743-.847A2.25,2.25,0,1,1,.493,1.4,2.25,2.25,0,0,1,2.743-.847Z" transform="translate(275 927)" fill="#fff"/>
  </g>
</svg>
