<svg xmlns="http://www.w3.org/2000/svg" width="55.484" height="40" viewBox="0 0 55.484 40">
  <g id="coudbased" transform="translate(-1000 -1192)">
    <g id="noun_Cloud_1709603" transform="translate(1000 1192)">
      <g id="Group_562" data-name="Group 562" transform="translate(0 0)">
        <path id="Path_350" data-name="Path 350" d="M34.742,971.362A16.121,16.121,0,0,1,50.77,985.616a12.9,12.9,0,0,1-1.19,25.746H17.968a10.968,10.968,0,0,1,0-21.936h.766a16.133,16.133,0,0,1,16.008-18.064Z" transform="translate(-7 -971.362)" fill="#7b10ff"/>
      </g>
    </g>
    <path id="Path_266" data-name="Path 266" d="M41.162,992.16a1.224,1.224,0,0,0-.649.325l-6.145,5.55a1.222,1.222,0,1,0,1.661,1.775l4.1-3.622v10.525a1.222,1.222,0,0,0,2.444,0V996.187l4.121,3.622a1.222,1.222,0,1,0,1.661-1.775l-6.164-5.55a1.222,1.222,0,0,0-1.031-.324Z" transform="translate(986.617 215.339)" fill="#fff" stroke="#fff" stroke-width="0.5"/>
  </g>
</svg>
