<svg xmlns="http://www.w3.org/2000/svg" width="56.873" height="48.722" viewBox="0 0 56.873 48.722">
  <g id="cross-paltform" transform="translate(-3.611 -10.653)">
    <rect id="Rectangle_1658" data-name="Rectangle 1658" width="53" height="36.8" rx="2" transform="translate(6 12.208)" fill="#7b10ff"/>
    <path id="Path_356" data-name="Path 356" d="M29.672,45a2.871,2.871,0,0,0-1.366-.347H15.454a2.953,2.953,0,0,0-1.421.368,2.669,2.669,0,0,0-1.422,2.365V72.379a2.851,2.851,0,0,0,2.843,2.843H28.306a2.733,2.733,0,0,0,1.834-.711,2.851,2.851,0,0,0,.954-2.132V47.387A2.662,2.662,0,0,0,29.672,45Z" transform="translate(-4.611 -15.847)" fill="#fff"/>
    <path id="Path_357" data-name="Path 357" d="M3.246,0H29a3,3,0,0,1,3,3V28a3,3,0,0,1-3,3H3.246a3,3,0,0,1-3-3V3A3,3,0,0,1,3.246,0Z" transform="translate(15 21.208)" fill="#fff"/>
    <g id="Group_564" data-name="Group 564" transform="translate(3.611 10.653)">
      <path id="Path_351" data-name="Path 351" d="M56.775,10.653H7.32a3.713,3.713,0,0,0-3.709,3.709V45.271A3.713,3.713,0,0,0,7.32,48.98h.618V40.944H6.084V14.362A1.237,1.237,0,0,1,7.32,13.126H56.775a1.237,1.237,0,0,1,1.236,1.236V40.944h-10.5V48.98h9.263a3.713,3.713,0,0,0,3.709-3.709V14.362A3.713,3.713,0,0,0,56.775,10.653Z" transform="translate(-3.611 -10.653)" fill="#7b10ff"/>
      <path id="Subtraction_8" data-name="Subtraction 8" d="M24.8,34.618H9.058a2.4,2.4,0,0,0,.625-.463,2.962,2.962,0,0,0,.812-2.066V7.871a2.651,2.651,0,0,0-1.21-2.312,2.2,2.2,0,0,0-1.163-.336H0V1.855A1.92,1.92,0,0,1,1.93,0H24.765a1.837,1.837,0,0,1,1.815,1.855v30.6A2.089,2.089,0,0,1,24.8,34.618Z" transform="translate(14.219 12.982)" fill="#7b10ff"/>
      <path id="Path_354" data-name="Path 354" d="M72.847,81.022c-.618-1.855-1.236-.618-1.236-.618v3.709h5.564v-.618C77.175,82.876,73.466,82.876,72.847,81.022Z" transform="translate(-28.71 -37.131)" fill="#7b10ff"/>
      <path id="Path_355" data-name="Path 355" d="M27.447,44.956a2.5,2.5,0,0,0-1.188-.3H15.083a2.568,2.568,0,0,0-1.236.32,2.321,2.321,0,0,0-1.236,2.057V68.764a2.479,2.479,0,0,0,2.472,2.472H26.259a2.376,2.376,0,0,0,1.595-.618,2.479,2.479,0,0,0,.83-1.854V47.03A2.315,2.315,0,0,0,27.447,44.956Z" transform="translate(-6.222 -24.5)" fill="#7b10ff"/>
      <circle id="Ellipse_19" data-name="Ellipse 19" cx="1.65" cy="1.65" r="1.65" transform="translate(13.308 40.455)" fill="#7b10ff"/>
    </g>
    <circle id="Ellipse_20" data-name="Ellipse 20" cx="1.65" cy="1.65" r="1.65" transform="translate(30.755 51.108)" fill="#7b10ff"/>
  </g>
</svg>
