<svg xmlns="http://www.w3.org/2000/svg" width="32.558" height="49.502" viewBox="0 0 32.558 49.502">
  <g id="ease-use" transform="translate(-292 -1177)">
    <g id="noun_Smartphone_2214309" transform="translate(280 1169.498)">
      <path id="Path_358" data-name="Path 358" d="M50.619,8h-25.3a3.813,3.813,0,0,0-3.628,3.973V53.529A3.813,3.813,0,0,0,25.318,57.5h25.3a3.809,3.809,0,0,0,3.628-3.973V11.973A3.832,3.832,0,0,0,50.619,8Z" transform="translate(-9.69 -0.498)" fill="#7b10ff"/>
      <path id="Path_359" data-name="Path 359" d="M42.495,24A10.155,10.155,0,1,0,52.65,34.132,10.155,10.155,0,0,0,42.495,24Zm6.043,7.383-6.785,6.86a1.254,1.254,0,0,1-1.725.046l-3.536-3.2A1.018,1.018,0,1,1,37.86,33.58l2.973,2.7L47.1,29.951a1.019,1.019,0,0,1,1.449,1.432Z" transform="translate(-14.34 -4.498)" fill="#fff"/>
    </g>
    <path id="Path_360" data-name="Path 360" d="M2.278-.11A2.75,2.75,0,1,1-.472,2.64,2.75,2.75,0,0,1,2.278-.11Z" transform="translate(306 1218)" fill="#fff"/>
  </g>
</svg>
