<svg xmlns="http://www.w3.org/2000/svg" width="58" height="58" viewBox="0 0 58 58">
  <g id="multilingual" transform="translate(-712 -1407)">
    <rect id="Rectangle_1656" data-name="Rectangle 1656" width="14" height="16" transform="translate(752 1409)" fill="#fff"/>
    <rect id="Rectangle_1657" data-name="Rectangle 1657" width="14" height="16" transform="translate(752 1436)" fill="#fff"/>
    <g id="_001---Bilingual" data-name="001---Bilingual" transform="translate(712 1407)">
      <path id="Shape" d="M30.91,52l-6.76-4.23A4.17,4.17,0,0,1,22,44.16V41a1,1,0,0,1,.32-.73,13.34,13.34,0,0,0,3.51-6,1,1,0,0,1,.43-.61,1.6,1.6,0,0,0,.74-1.3V28.91a1.71,1.71,0,0,0-.67-1.17A1,1,0,0,1,26,27V22c0-.23-.54-7-9-7s-9,6.77-9,7.06V27a1,1,0,0,1-.33.75A1.71,1.71,0,0,0,7,28.91v3.45a1.6,1.6,0,0,0,.74,1.34,1,1,0,0,1,.43.61,13.07,13.07,0,0,0,3.51,5.95A1,1,0,0,1,12,41v3.16A4.19,4.19,0,0,1,9.79,47.8L3.14,52A5.94,5.94,0,0,0,0,57.2V58H34v-.8A5.91,5.91,0,0,0,30.91,52Z" fill="#7b10ff"/>
      <path id="Shape-2" data-name="Shape" d="M54,27H40a4,4,0,0,0-4,4v2l-6,4,6,4v2a4,4,0,0,0,4,4H54a4,4,0,0,0,4-4V31A4,4,0,0,0,54,27ZM52,42a1,1,0,0,1,0,2c-2.08,0-3.27.13-5-.69-1.71.82-2.92.69-5,.69a1,1,0,0,1,0-2,15.17,15.17,0,0,0,3-.1,7,7,0,0,1-1.6-2.54,1,1,0,0,1,1.88-.68A5,5,0,0,0,47,41a5,5,0,0,0,2-4V35H42a1,1,0,0,1,0-2h4V31a1,1,0,0,1,2,0v2h4a1,1,0,0,1,0,2H51v2a7,7,0,0,1-2,4.89A13.37,13.37,0,0,0,52,42Z" fill="#7b10ff"/>
      <path id="Shape-3" data-name="Shape" d="M51,9v1H43V9a4,4,0,0,1,8,0Z" fill="#fff"/>
      <path id="Shape-4" data-name="Shape" d="M54,0H40a4,4,0,0,0-4,4V6l-6,4,6,4v2a4,4,0,0,0,4,4H54a4,4,0,0,0,4-4V4A4,4,0,0,0,54,0ZM53,16a1,1,0,0,1-2,0V12H43v4a1,1,0,0,1-2,0V9A6,6,0,0,1,53,9Z" fill="#7b10ff"/>
    </g>
  </g>
</svg>
