<?xml version="1.0" standalone="no"?>
<!DOCTYPE svg PUBLIC "-//W3C//DTD SVG 20010904//EN"
 "http://www.w3.org/TR/2001/REC-SVG-20010904/DTD/svg10.dtd">
<svg version="1.0" xmlns="http://www.w3.org/2000/svg"
 width="260.000000pt" height="280.000000pt" viewBox="0 0 260.000000 280.000000"
 preserveAspectRatio="xMidYMid meet">
<metadata>
Created by potrace 1.16, written by Peter Selinger 2001-2019
</metadata>
<g transform="translate(0.000000,280.000000) scale(0.100000,-0.100000)"
fill="#fff" stroke="none">
<path d="M1262 1858 l3 -503 359 -2 c247 -2 364 1 373 9 10 8 13 91 13 396 l0
385 -107 108 -107 109 -268 0 -268 0 2 -502z m508 362 l0 -100 100 0 100 0 0
-365 0 -365 -340 0 -340 0 0 465 0 465 240 0 240 0 0 -100z"/>
<path d="M1350 2215 c0 -8 7 -15 15 -15 12 0 15 -16 15 -85 0 -69 -3 -85 -15
-85 -8 0 -15 -9 -15 -20 0 -18 7 -20 75 -20 67 0 79 3 100 25 29 28 31 51 8
85 -10 14 -16 38 -14 56 4 53 -26 74 -104 74 -51 0 -65 -3 -65 -15z"/>
<path d="M827 2304 c-4 -4 -7 -55 -7 -113 l0 -105 -33 32 c-26 25 -36 29 -45
20 -10 -10 -1 -24 40 -65 29 -29 57 -53 63 -53 6 0 33 22 60 50 40 41 46 51
36 64 -11 13 -16 11 -38 -14 -14 -17 -29 -30 -34 -30 -5 0 -9 40 -9 90 l0 89
143 3 c118 3 142 5 142 18 0 13 -25 15 -156 18 -85 1 -158 -1 -162 -4z"/>
<path d="M595 1938 c-3 -7 -4 -231 -3 -498 l3 -485 373 -3 372 -2 0 169 c0
141 -2 170 -15 175 -13 5 -15 -16 -15 -154 l0 -160 -340 0 -340 0 2 468 3 467
232 3 232 2 3 -102 3 -103 48 -3 c42 -3 48 -1 45 15 -2 12 -12 18 -28 18 -24
0 -25 3 -28 70 l-3 69 21 -19 c15 -13 23 -16 31 -8 8 8 2 23 -22 52 l-34 41
-268 0 c-205 0 -269 -3 -272 -12z"/>
<path d="M803 1838 c-20 -25 -102 -221 -97 -229 10 -17 23 -9 39 21 14 28 20
30 70 30 50 0 56 -2 70 -30 16 -30 29 -38 39 -21 7 10 -93 241 -104 241 -4 0
-12 -6 -17 -12z"/>
<path d="M1700 1235 c-42 -43 -52 -57 -42 -67 9 -9 20 -5 47 22 l35 34 0 -97
0 -97 -145 0 c-123 0 -145 -2 -145 -15 0 -13 22 -15 163 -13 l162 3 3 109 3
109 34 -33 c27 -27 38 -31 47 -22 10 10 0 24 -42 67 -30 30 -57 55 -60 55 -3
0 -30 -25 -60 -55z"/>
</g>
</svg>
