<svg id="SvgjsSvg1014" width="288" height="288" xmlns="http://www.w3.org/2000/svg" version="1.1" xmlns:xlink="http://www.w3.org/1999/xlink" xmlns:svgjs="http://svgjs.com/svgjs"><defs id="SvgjsDefs1015"></defs><g id="SvgjsG1016"><svg xmlns="http://www.w3.org/2000/svg" width="288" height="288" version="1.0" viewBox="0 0 376 376"><g transform="matrix(.1 0 0 -.1 0 376)" fill="#ffffff" class="color000 svgShape"><path d="M1665 3436 c-315 -53 -574 -185 -795 -406 -115 -114 -216 -254 -275-382 -40 -88 -43 -120 -15 -148 25 -25 81 -27 102 -2 8 9 37 59 64 111 188
369 549 622 973 682 102 14 317 6 416 -15 262 -58 480 -180 667 -374 186 -193
303 -432 343 -697 9 -59 14 -109 12 -112 -3 -2 -33 32 -68 77 -65 82 -89 97
-134 86 -30 -8 -59 -59 -49 -89 4 -12 67 -97 140 -189 134 -168 157 -188 203
-173 29 9 320 315 328 343 8 35 -26 76 -67 80 -30 3 -41 -5 -116 -79 l-82 -82
-7 69 c-52 521 -349 952 -810 1174 -113 54 -190 81 -320 111 -117 26 -392 35
-510 15z" fill="#ffffff" class="color000 svgShape"></path><path d="M1736 2660c-87-93-168-308-183-487l-6-73 127 0 126 0 0 305c0 168-4 305-9 305-4 0-29-23-55-50zM1960 2405l0-305 126 0 127 0-6 73c-9 105-51 260-96 354-36 75-120 183-142 183-5 0-9-137-9-305zM1494 2622c-171-115-287-290-319-480l-7-42 110 0 111 0 6 58c17 158 62 325 117 435 15 31 27 57 26 57-2 0-21-12-44-28zM2248 2594c54-109 99-276 117-436l6-58 110 0c77 0 109 3 109 12 0 36-37 154-70 223-60 124-147 220-274 301l-28 18 30-60zM489 2228c-8-7-81-81-162-164-160-165-169-183-122-229 43-44 70-34 161 56l82 81 6-63c28-261 105-480 244-689 73-110 239-281 349-360 343-244 782-328 1185-226l89 22 35-47c49-67 134-142 212-189 98-57 204-89 350-104 142-15 167-10 190 36 12 25 9 37-22 120-66 177-106 383-106 548l0 85 65 90c78 109 155 259 155 301 0 52-54 87-105 68-9-4-34-43-57-88-46-93-110-194-168-267-39-50-40-52-40-134 0-164 30-371 79-538l20-69-52 7c-178 25-342 129-434 277-49 80-70 86-173 54-45-15-121-33-168-42-102-18-317-20-417-4-268 42-525 176-720 374-191 195-322 466-355 735-5 47-9 86-7 87 1 2 31-33 66-77 35-44 74-85 87-89 49-19 113 34 100 83-5 23-256 344-279 359-19 12-72 9-88-4z" fill="#ffffff" class="color000 svgShape"></path><path d="M1553 1873c17-213 116-451 218-523l29-21 0 310 0 311-126 0-127 0 6-77zM1960 1639l0-312 33 25c100 78 196 311 213 519l7 79-127 0-126 0 0-311zM2365 1893c-19-172-69-359-120-450-13-24-21-43-18-43 3 0 34 20 68 45 133 94 235 243 275 401 11 43 20 83 20 91 0 10-25 13-109 13l-110 0-6-57zM1170 1927c0-7 9-46 21-87 43-156 143-301 273-397 32-24 61-42 63-40 2 2-10 34-27 70-51 113-81 233-105 420l-6 47-110 0c-81 0-109-3-109-13z" fill="#ffffff" class="color000 svgShape"></path></g></svg></g></svg>