<svg id="SvgjsSvg1022" width="288" height="288" xmlns="http://www.w3.org/2000/svg" version="1.1" xmlns:xlink="http://www.w3.org/1999/xlink" xmlns:svgjs="http://svgjs.com/svgjs"><defs id="SvgjsDefs1023"></defs><g id="SvgjsG1024"><svg xmlns="http://www.w3.org/2000/svg" width="288" height="288" version="1.0" viewBox="0 0 256 256"><g transform="matrix(.1 0 0 -.1 0 256)" fill="#ffffff" class="color000 svgShape"><path d="M293 2384 c-62 -22 -129 -100 -143 -167 -8 -34 -10 -148 -8 -338 l3-286 30 -49 c39 -62 97 -103 161 -112 l49 -7 5 -83 c4 -73 8 -86 29 -103 48
-39 77 -27 209 81 l122 100 267 2 c291 3 303 6 371 63 18 15 43 46 55 69 21
39 22 54 25 339 3 336 -1 366 -64 431 -72 74 -44 71 -584 73 -411 2 -491 -1
-527 -13z m1017 -77 c30 -16 51 -37 67 -68 24 -44 24 -46 21 -340 l-3 -296
-28 -36 c-52 -68 -63 -71 -342 -73 -137 -2 -262 -3 -277 -3 -18 -1 -63 -32
-146 -101 -66 -55 -125 -100 -131 -100 -7 0 -11 29 -11 83 0 105 -8 116 -83
124 -73 7 -115 35 -144 93 -22 43 -23 54 -23 326 0 274 1 282 23 324 16 30 37
51 67 67 l43 23 462 0 462 0 43 -23z" fill="#ffffff" class="color000 svgShape"></path><path d="M436 2178c-13-19-16-62-16-266 0-149 4-251 10-263 12-22 59-26 78-7 8 8 12 49 12 120l0 109 133-3 132-3 3-104c3-110 10-131 46-131 44 0 46 10 46 287l0 263-26 12c-49 23-59 4-62-121l-3-111-134 0-135 0 0 104c0 82-3 108-16 120-22 22-50 20-68-6zM1046 2178c-13-19-16-62-16-266 0-149 4-251 10-263 12-22 59-26 78-7 9 9 12 83 12 269 0 221-2 260-16 273-22 22-50 20-68-6zM1742 2127c-56-56-102-111-102-121 0-18 168-199 203-217 31-17 57 6 57 51 0 47 1 47 100 24 142-32 258-132 332-285 24-49 48-87 53-86 17 6 17 192 0 260-48 191-192 322-403 367-77 16-77 16-80 51-4 39-18 59-41 59-9 0-62-46-119-103zM1222 1314c-57-28-97-73-118-131-16-47-20-587-4-645 16-54 69-119 120-145 43-22 54-23 313-23l267-1 101-82c171-139 191-148 240-108 21 17 25 30 29 103l5 83 40 6c89 12 159 70 190 158 21 60 22 575 1 643-19 65-59 113-119 143l-51 25-481 0-481 0-52-26zm1042-67c25-14 48-39 63-66 23-43 23-50 23-325 0-252-2-285-19-322-26-56-69-85-143-94-80-9-88-21-88-127 0-46-4-83-9-83-6 0-241 186-254 202-1 1-131 4-289 7-325 7-322 6-365 91-22 43-23 54-23 325 0 271 1 282 23 325 14 30 36 53 62 67 40 23 42 23 510 23 468 0 470 0 509-23z" fill="#ffffff" class="color000 svgShape"></path><path d="M1435 1146c-41-18-68-51-61-73 3-10 17-31 30-48l24-30 24 23c45 42 78 26 78-39 0-26-6-32-45-49-42-18-45-22-45-58 0-44 14-62 50-62 61 0 91-59 50-100-32-32-75-22-116 28l-20 25-37-43c-20-24-37-47-37-51 0-4 18-23 39-42 67-60 157-71 229-27 33 20 72 85 72 120 0 16 6 20 30 20l30 0 0-79c0-85 4-91 60-91 62 0 60-9 60 241l0 229 50 0 50 0 2-232 3-233 50 0 50 0 3 233 2 232 29 0c52 0 79 52 48 93-11 16-34 17-237 15l-225-3-3-48c-3-46-2-47 27-53l31-6 0-79c0-76-12-109-41-109-12 0-79 28-79 32 0 2 9 21 20 43 41 81 12 181-62 215-50 23-91 25-133 6zM167 1063c-13-13-7-199 8-258 48-188 185-314 390-361 39-9 76-18 83-20 6-2 12-18 12-37 0-36 15-57 39-57 23 0 221 201 221 224 0 18-168 198-202 217-32 17-58-6-58-51 0-47-1-47-100-24-70 16-162 64-214 112-39 37-118 158-140 215-17 46-26 54-39 40z" fill="#ffffff" class="color000 svgShape"></path></g></svg></g></svg>