<svg id="SvgjsSvg1001" width="288" height="288" xmlns="http://www.w3.org/2000/svg" version="1.1" xmlns:xlink="http://www.w3.org/1999/xlink" xmlns:svgjs="http://svgjs.com/svgjs"><defs id="SvgjsDefs1002"></defs><g id="SvgjsG1008" transform="matrix(1,0,0,1,0,0)"><svg xmlns="http://www.w3.org/2000/svg" width="288" height="288" version="1.0" viewBox="0 0 200 200"><g transform="matrix(.1 0 0 -.1 0 200)" fill="#ffffff" class="color000 svgShape"><path d="M581 1956c-13-7-30-24-37-37-51-92 72-183 146-109 43 43 32 118-21 145-34 18-57 18-88 1zm73-71c7-19-20-46-39-39-21 8-26 32-9 48 16 17 40 12 48-9zM831 1956c-13-7-30-24-37-37-51-92 72-183 146-109 43 43 32 118-21 145-34 18-57 18-88 1zm73-71c7-19-20-46-39-39-21 8-26 32-9 48 16 17 40 12 48-9z" fill="#ffffff" class="color000 svgShape"></path><path d="M1081 1956 c-39 -22 -50 -54 -51 -148 l0 -88 -260 0 c-247 0 -261 -1-280 -20 -19 -19 -20 -33 -20 -508 l0 -487 -201 -200 c-203 -202 -238 -248
-239 -311 0 -51 40 -115 90 -141 89 -47 138 -27 285 117 l111 110 487 0 c474
0 488 1 507 20 19 19 20 33 20 419 l0 400 26 20 c25 19 40 21 191 21 l165 0
29 29 29 29 0 336 c0 361 -2 376 -51 402 -39 20 -802 20 -838 0z m813 -62 c14
-13 16 -58 16 -333 0 -233 -3 -320 -12 -329 -8 -8 -62 -12 -178 -12 l-166 0
-59 -60 c-33 -33 -65 -60 -72 -60 -9 0 -13 18 -13 60 l0 60 -148 0 c-102 0
-152 4 -160 12 -9 9 -12 96 -12 329 0 275 2 320 16 333 13 14 63 16 394 16
331 0 381 -2 394 -16z m-864 -455 l0 -221 29 -29 c29 -29 30 -29 155 -29 l126
0 0 -30 c0 -68 54 -115 105 -92 l25 12 0 -355 0 -355 -447 0 -448 0 117 118
117 117 51 123 c47 114 51 126 39 154 -7 17 -26 37 -44 45 -31 15 -36 14 -156
-37 -68 -28 -134 -61 -146 -73 l-23 -20 0 446 0 447 250 0 250 0 0 -221z
m-190 -613 c0 -8 -3 -22 -6 -31 -6 -14 -9 -13 -30 6 -18 17 -21 25 -12 31 21
13 48 9 48 -6z m-52 -137 c-5 -16 -13 -31 -17 -34 -4 -2 -34 23 -66 55 l-59
59 35 15 c34 15 34 14 76 -26 38 -37 40 -43 31 -69z m-163 21 c19 -21 17 -23
-148 -187 -164 -165 -166 -167 -187 -148 -11 10 -20 23 -20 29 0 14 312 326
326 326 6 0 19 -9 29 -20z m87 -87 c10 -9 18 -21 18 -27 0 -14 -312 -326 -326
-326 -6 0 -19 9 -29 20 -19 21 -17 23 145 185 91 91 167 165 169 165 2 0 13
-7 23 -17z m-417 -333 l69 -69 -24 -26 -24 -26 -73 73 -73 72 22 23 c12 13 24
23 28 23 3 0 37 -31 75 -70z m-31 -171 c-2 -4 -20 -13 -39 -19 -49 -16 -104
11 -123 61 -12 31 -11 41 3 74 l16 39 74 -74 c41 -40 72 -77 69 -81z" fill="#ffffff" class="color000 svgShape"></path><path d="M1426 1824c-19-19-20-52-2-168 14-93 34-126 76-126 42 0 62 33 76 126 25 168 19 184-76 184-40 0-64-5-74-16zm101-71c-3-16-9-56-13-90-3-35-10-63-14-63-4 0-11 28-14 63-4 34-10 74-13 90-5 25-3 27 27 27 30 0 32-2 27-27zM1439 1441c-21-22-29-39-29-66 0-48 44-95 90-95 46 0 90 47 90 95 0 48-44 95-90 95-22 0-41-9-61-29zm85-54c16-25-16-56-38-37-19 15-20 32-4 48 15 15 28 11 42-11zM590 1560l0-30 95 0 95 0 0 30 0 30-95 0-95 0 0-30zM840 1560l0-30 65 0 65 0 0 30 0 30-65 0-65 0 0-30zM590 1440l0-30 190 0 190 0 0 30 0 30-190 0-190 0 0-30zM590 1310l0-30 95 0 95 0 0 30 0 30-95 0-95 0 0-30zM840 1310l0-30 65 0 65 0 0 30 0 30-65 0-65 0 0-30zM590 1190l0-30 65 0 65 0 0 30 0 30-65 0-65 0 0-30zM780 1190l0-30 95 0 95 0 0 30 0 30-95 0-95 0 0-30zM590 1060l0-30 190 0 190 0 0 30 0 30-190 0-190 0 0-30zM970 780l0-190 218 2 217 3 3 188 2 187-220 0-220 0 0-190zm370 5l0-125-155 0-155 0 0 125 0 125 155 0 155 0 0-125zM833 515c-20-14-52-89-42-99 2-3 16-7 30-11 23-6 27-2 35 26 13 46 28 46 49-1 10-22 21-40 24-40 4 0 25 18 46 40 21 22 43 40 47 40 4 0 8-13 8-30l0-30 190 0 190 0 0 30 0 30-160 0c-100 0-160 4-160 10 0 20-41 50-69 50-16 0-39-8-51-18-23-18-24-18-42 0-22 22-66 23-95 3zM190 1897l-25-13-3-347-2-347-75 0c-41 0-75-2-75-5 0-9 173-265 179-265 3 0 45 60 93 133l88 132-75 3-75 3 0 324 0 325 125 0 125 0 0 35 0 35-127 0c-83 0-137-5-153-13zm30-822c-17-25-32-45-34-45-4 0-56 78-56 85 0 3 27 5 60 5l61 0-31-45zM1718 947l-88-132 75-3 75-3 0-324 0-325-155 0-155 0 0-36 0-35 168 3c125 2 173 7 185 17 15 12 17 50 17 357l0 344 75 0c41 0 75 2 75 5 0 9-173 265-179 265-3 0-45-60-93-133zm126-17c14-22 26-42 26-45 0-3-27-5-60-5l-61 0 31 45c17 25 32 45 34 45 2 0 15-18 30-40zM774 210c-84-34-64-162 27-176 31-5 42-1 70 24 46 41 47 92 1 133-33 29-60 35-98 19zm50-56c19-7 21-50 4-57-18-6-48 11-48 26 0 7 5 18 12 25 14 14 12 14 32 6zM1024 210c-84-34-64-162 27-176 31-5 42-1 70 24 46 41 47 92 1 133-33 29-60 35-98 19zm50-56c19-7 21-50 4-57-18-6-48 11-48 26 0 7 5 18 12 25 14 14 12 14 32 6zM1274 210c-84-34-64-162 27-176 31-5 42-1 70 24 46 41 47 92 1 133-33 29-60 35-98 19zm50-56c19-7 21-50 4-57-18-6-48 11-48 26 0 7 5 18 12 25 14 14 12 14 32 6z" fill="#ffffff" class="color000 svgShape"></path></g></svg></g></svg>