<svg id="SvgjsSvg1030" width="288" height="288" xmlns="http://www.w3.org/2000/svg" version="1.1" xmlns:xlink="http://www.w3.org/1999/xlink" xmlns:svgjs="http://svgjs.com/svgjs"><defs id="SvgjsDefs1031"></defs><g id="SvgjsG1032"><svg xmlns="http://www.w3.org/2000/svg" width="288" height="288" version="1.0" viewBox="0 0 512 512"><g transform="matrix(.1 0 0 -.1 0 512)" fill="#ffffff" class="color000 svgShape"><path d="M2370 5114 c-19 -2 -78 -9 -130 -15 -791 -90 -1522 -586 -1924 -1305-146 -262 -252 -588 -297 -914 -18 -125 -18 -515 0 -640 45 -326 151 -652 297
-914 375 -671 1029 -1145 1768 -1280 1031 -190 2045 243 2622 1120 550 834
550 1954 0 2788 -411 626 -1048 1032 -1788 1142 -98 14 -474 27 -548 18z m405
-164 c554 -50 1086 -300 1481 -696 374 -376 605 -844 685 -1389 18 -118 18
-492 0 -610 -80 -544 -312 -1014 -685 -1389 -374 -375 -841 -606 -1391 -687
-118 -18 -492 -18 -610 0 -547 80 -1022 316 -1396 692 -188 190 -325 382 -448
629 -458 921 -274 2029 455 2756 192 191 387 330 636 454 394 196 838 279
1273 240z" fill="#ffffff" class="color000 svgShape"></path><path d="M1538 3590 c-145 -25 -268 -89 -373 -195 -89 -90 -134 -158 -173
-267 l-27 -73 -3 -465 c-3 -526 -1 -551 68 -688 75 -147 180 -250 327 -318
143 -67 95 -65 1226 -62 l1022 3 85 30 c213 74 372 241 442 465 23 74 23 81
23 535 0 409 -2 467 -18 524 -66 241 -249 425 -493 498 -55 16 -135 18 -1059
19 -550 1 -1021 -2 -1047 -6z m2037 -165 c102 -22 189 -69 265 -145 77 -77
113 -141 140 -246 18 -71 20 -111 20 -473 0 -305 -4 -412 -15 -464 -40 -189
-196 -352 -386 -402 -83 -23 -1998 -22 -2084 0 -175 46 -311 175 -372 354 -22
64 -22 77 -23 501 0 471 2 486 56 599 42 85 154 193 246 236 41 19 97 38 124
43 28 6 453 10 1004 11 805 1 966 -2 1025 -14z" fill="#ffffff" class="color000 svgShape"></path><path d="M1803 3190c-12-5-26-18-32-29-8-13-11-211-11-609l0-589 23-21c13-12 35-22 49-22 82 0 88 20 88 315l0 245 48 0c41 0 50-4 59-22 6-13 54-129 108-258 54-129 107-245 118-257 24-27 72-30 104-8 45 32 40 56-67 309-55 131-100 242-100 247 0 5 17 17 38 28 115 60 181 199 169 358-10 134-72 230-185 285-66 33-68 33-227 35-88 2-170-2-182-7zm361-183c56-43 71-79 71-172 0-146-55-195-220-195l-95 0 0 201 0 201 104-4c94-3 106-6 140-31zM2683 3190c-12-5-26-18-32-29-7-13-11-164-11-448 0-353 3-439 15-488 47-178 174-295 331-303 62-4 81 0 133 23 71 32 146 107 186 185 50 99 55 149 55 598l0 414-30 30c-26 25-36 29-63 24-64-13-62 7-67-479l-5-442-33-68c-41-82-84-118-151-125-82-8-150 47-190 153-20 53-21 73-21 481l0 426-29 29c-30 30-50 34-88 19z" fill="#ffffff" class="color000 svgShape"></path></g></svg></g></svg>