<svg id="SvgjsSvg1038" width="288" height="288" xmlns="http://www.w3.org/2000/svg" version="1.1" xmlns:xlink="http://www.w3.org/1999/xlink" xmlns:svgjs="http://svgjs.com/svgjs"><defs id="SvgjsDefs1039"></defs><g id="SvgjsG1040"><svg xmlns="http://www.w3.org/2000/svg" width="288" height="288" version="1.0" viewBox="0 0 348 348"><g transform="matrix(.1 0 0 -.1 0 348)" fill="#ffffff" class="color000 svgShape"><path d="M1540 3334 c-208 -26 -384 -79 -575 -174 -728 -361 -1027 -1174 -684-1863 52 -105 86 -158 160 -252 26 -33 52 -80 59 -104 30 -111 -40 -266 -255
-565 -42 -57 -46 -109 -14 -150 34 -43 70 -56 157 -56 156 0 347 77 620 249
78 50 151 95 162 101 15 8 41 4 107 -15 159 -45 265 -59 448 -59 94 0 206 6
250 13 614 98 1091 479 1270 1014 89 267 89 568 0 841 -137 421 -498 772 -960
935 -166 59 -308 82 -520 86 -104 2 -206 1 -225 -1z m420 -149 c398 -60 749
-263 968 -560 162 -220 244 -464 243 -730 0 -258 -67 -474 -214 -695 -65 -98
-261 -291 -362 -358 -158 -105 -362 -191 -538 -227 -268 -54 -566 -39 -810 40
l-79 26 -81 -49 c-45 -27 -134 -81 -197 -119 -141 -86 -232 -132 -329 -167
-68 -24 -191 -49 -191 -38 0 2 22 34 48 71 174 238 249 434 222 578 -13 65
-26 88 -130 228 -150 202 -230 449 -230 713 0 635 508 1178 1205 1287 112 18
361 18 475 0z" fill="#ffffff" class="color000 svgShape"></path><path d="M1097 2638c-9-7-34-65-56-128-49-145-131-380-215-624-36-104-66-201-66-216 0-54 72-83 110-44 10 11 37 74 60 142l43 122 166 0 166 0 44-126c24-69 50-132 58-140 38-38 113-8 113 45 0 37-315 939-336 962-20 22-62 25-87 7zm104-443l56-165-118 0-118 0 57 165c31 91 59 165 62 165 3 0 30-74 61-165zM2232 2147c-19-20-22-35-22-105l0-82-190 0c-177 0-191-1-210-20-29-29-26-74 6-99 26-20 38-21 336-21l310 0-7-27c-20-83-139-279-202-336-20-17-22-16-78 50-32 38-73 91-91 119-33 52-49 64-85 64-28 0-59-36-59-69 0-33 55-119 134-207 51-57 54-63 38-76-37-32-149-93-226-123-91-35-114-62-96-109 15-39 51-52 102-36 64 18 214 96 284 146 54 38 64 42 75 28 19-23 178-127 242-158 77-38 127-19 127 48 0 39-15 54-90 91-30 15-82 46-115 69-32 22-64 44-70 48-6 4 2 20 21 40 85 90 166 226 213 354l29 79 55 5c65 6 97 30 97 72 0 15-9 37-20 48-19 19-33 20-205 20l-185 0 0 79c0 64-4 83-21 105-26 33-68 34-97 3z" fill="#ffffff" class="color000 svgShape"></path></g></svg></g></svg>