<?xml version="1.0" standalone="no"?>
<!DOCTYPE svg PUBLIC "-//W3C//DTD SVG 20010904//EN"
 "http://www.w3.org/TR/2001/REC-SVG-20010904/DTD/svg10.dtd">
<svg version="1.0" xmlns="http://www.w3.org/2000/svg"
 width="980.000000pt" height="960.000000pt" viewBox="0 0 980.000000 960.000000"
 preserveAspectRatio="xMidYMid meet">

<g transform="translate(0.000000,960.000000) scale(0.100000,-0.100000)"
fill="#fff" stroke="none">
<path d="M615 9589 c-279 -41 -516 -253 -592 -529 -17 -62 -18 -260 -18 -4260
0 -4045 1 -4197 18 -4260 73 -258 272 -450 534 -517 64 -17 243 -18 3083 -18
2884 0 3018 1 3093 18 249 59 440 240 528 502 l24 70 3 2008 2 2007 -187 -2
-188 -3 -5 -1990 -5 -1990 -28 -53 c-37 -70 -97 -128 -166 -161 l-56 -26
-3010 0 -3010 0 -55 26 c-69 32 -131 92 -167 161 l-28 53 0 4175 0 4175 28 53
c36 69 98 129 167 161 l55 26 3010 0 3010 0 57 -28 c72 -35 134 -97 167 -167
l26 -55 3 -372 3 -373 190 0 190 0 -4 393 c-4 436 -4 435 -76 581 -73 150
-174 251 -326 326 -44 22 -107 48 -140 57 -57 17 -228 18 -3065 19 -1674 1
-3031 -2 -3065 -7z"/>
<path d="M8890 8743 c-44 -7 -123 -35 -175 -61 -52 -26 -2901 -2091 -2968
-2151 -59 -53 -134 -173 -164 -264 -23 -72 -27 -98 -27 -217 -1 -112 3 -148
22 -214 104 -360 424 -616 766 -616 108 0 198 20 280 61 34 16 223 148 422
292 198 144 844 613 1435 1042 610 443 1100 806 1135 840 70 70 123 159 155
265 31 99 33 289 5 395 -97 368 -428 639 -776 634 -47 -1 -96 -4 -110 -6z
m262 -405 c70 -33 149 -104 198 -180 79 -121 92 -284 33 -389 -29 -51 -94
-100 -1459 -1092 -786 -572 -1449 -1048 -1474 -1060 -155 -72 -378 41 -477
240 -33 67 -38 85 -41 169 -4 90 -3 98 26 157 18 35 45 73 64 87 86 63 457
333 1148 835 415 302 968 703 1228 892 260 190 488 351 505 359 52 23 180 14
249 -18z"/>
<path d="M2060 7935 l0 -345 -345 0 -345 0 0 -190 0 -190 345 0 345 0 0 -345
0 -345 190 0 190 0 0 345 0 345 345 0 345 0 0 190 0 190 -345 0 -345 0 0 345
0 345 -190 0 -190 0 0 -345z"/>
<path d="M4771 5449 c-249 -495 -452 -902 -450 -903 6 -5 2017 258 2023 264 2
3 -138 59 -312 124 -174 66 -351 137 -392 158 -127 65 -246 180 -309 297 -62
116 -70 171 -86 580 -8 206 -16 376 -18 377 -1 2 -207 -402 -456 -897z m300
-316 c18 -27 45 -63 61 -82 16 -18 27 -35 24 -38 -3 -4 -188 -31 -219 -33 -4
0 15 45 43 100 28 55 52 100 55 100 2 0 19 -21 36 -47z"/>
<path d="M1280 5165 l0 -185 1150 0 1150 0 0 185 0 185 -1150 0 -1150 0 0
-185z"/>
<path d="M1280 4045 l0 -185 2470 0 2470 0 0 185 0 185 -2470 0 -2470 0 0
-185z"/>
<path d="M1280 2920 l0 -190 2468 2 2467 3 3 188 2 187 -2470 0 -2470 0 0
-190z"/>
<path d="M1280 1800 l0 -190 2470 0 2470 0 0 190 0 190 -2470 0 -2470 0 0
-190z"/>
</g>
</svg>
