<svg id="SvgjsSvg1001" width="288" height="288" xmlns="http://www.w3.org/2000/svg" version="1.1" xmlns:xlink="http://www.w3.org/1999/xlink" xmlns:svgjs="http://svgjs.com/svgjs"><defs id="SvgjsDefs1002"></defs><g id="SvgjsG1008"><svg xmlns="http://www.w3.org/2000/svg" enable-background="new 0 0 212.287 212.287" viewBox="0 0 212.287 212.287" width="288" height="288"><path d="M212.043,81.891c-0.588-1.81-2.153-3.129-4.037-3.403l-67.287-9.777L110.628,7.737c-0.842-1.707-2.581-2.787-4.484-2.787
	c-1.903,0-3.642,1.081-4.484,2.787L71.568,68.711L4.281,78.487c-1.884,0.274-3.448,1.593-4.037,3.403
	c-0.588,1.81-0.098,3.797,1.265,5.126l48.689,47.46l-11.494,67.015c-0.322,1.876,0.45,3.771,1.989,4.89
	c1.54,1.12,3.582,1.265,5.266,0.381l60.184-31.64l60.184,31.64c0.731,0.384,1.53,0.574,2.326,0.574c1.037,0,2.068-0.322,2.939-0.955
	c1.54-1.119,2.311-3.014,1.989-4.89l-11.494-67.015l48.689-47.46C212.14,85.688,212.63,83.701,212.043,81.891z" fill="#ffffff" class="color000 svgShape"></path></svg></g></svg>