<?xml version="1.0" standalone="no"?>
<!DOCTYPE svg PUBLIC "-//W3C//DTD SVG 20010904//EN"
 "http://www.w3.org/TR/2001/REC-SVG-20010904/DTD/svg10.dtd">
<svg version="1.0" xmlns="http://www.w3.org/2000/svg"
 width="253.000000pt" height="199.000000pt" viewBox="0 0 253.000000 199.000000"
 preserveAspectRatio="xMidYMid meet">

<g transform="translate(0.000000,199.000000) scale(0.100000,-0.100000)"
fill="#fff" stroke="none">
<path d="M1981 1981 c-10 -7 -12 -21 -8 -52 8 -61 -13 -189 -30 -189 -28 0
-73 -31 -79 -55 l-6 -25 -852 0 c-804 0 -853 -1 -891 -19 -49 -22 -91 -69
-105 -119 -8 -25 -10 -187 -8 -498 l3 -460 27 -41 c34 -52 97 -83 167 -83 44
0 52 3 47 16 -3 9 -6 24 -6 35 0 15 -7 19 -30 19 -42 0 -94 23 -114 51 -14 21
-16 75 -16 487 l0 464 34 34 34 34 886 0 c865 0 886 0 896 19 5 11 10 29 10
40 0 18 6 21 45 21 41 0 45 -2 45 -24 0 -51 18 -56 192 -56 l160 0 34 -34 34
-34 0 -461 c0 -418 -2 -464 -17 -488 -28 -42 -70 -53 -203 -53 -112 0 -120 -1
-120 -19 0 -11 -3 -26 -6 -35 -5 -14 11 -16 137 -16 168 0 212 14 257 83 l27
41 3 460 c2 311 0 473 -8 498 -14 50 -56 97 -105 119 -32 15 -66 19 -170 19
l-131 0 -11 30 c-6 17 -23 34 -38 40 -28 10 -28 11 -20 73 12 89 9 134 -9 162
-17 26 -32 30 -55 16z"/>
<path d="M226 1444 c-12 -11 -16 -35 -16 -85 0 -108 2 -109 124 -109 86 0 105
3 110 16 11 29 7 169 -6 182 -19 19 -193 16 -212 -4z"/>
<path d="M542 1448 c-16 -16 -16 -170 0 -186 8 -8 47 -12 110 -12 116 0 118 2
118 109 0 95 -7 101 -124 101 -58 0 -96 -4 -104 -12z"/>
<path d="M861 1446 c-8 -9 -11 -46 -9 -103 l3 -88 110 0 110 0 3 88 c2 57 -1
94 -9 103 -8 10 -37 14 -104 14 -67 0 -96 -4 -104 -14z"/>
<path d="M1176 1444 c-20 -19 -23 -163 -4 -182 8 -8 47 -12 108 -12 61 0 100
4 108 12 7 7 12 43 12 93 0 50 -5 86 -12 93 -19 19 -193 16 -212 -4z"/>
<path d="M1491 1446 c-8 -9 -11 -46 -9 -103 l3 -88 107 -3 c101 -3 108 -1 118
19 17 31 9 167 -10 179 -25 16 -196 12 -209 -4z"/>
<path d="M1810 1450 c-19 -12 -27 -148 -10 -179 10 -20 17 -22 118 -19 l107 3
3 88 c2 57 -1 94 -9 103 -13 16 -184 20 -209 4z"/>
<path d="M2122 1448 c-7 -7 -12 -43 -12 -93 0 -50 5 -86 12 -93 16 -16 200
-16 216 0 19 19 16 163 -4 182 -19 20 -193 23 -212 4z"/>
<path d="M2122 1158 c-13 -13 -18 -441 -6 -472 5 -13 24 -16 108 -16 66 0 106
4 114 12 9 9 12 75 12 234 0 189 -2 225 -16 238 -19 20 -193 23 -212 4z"/>
<path d="M221 1141 c-17 -32 -14 -157 5 -175 21 -22 31 -20 57 9 12 14 38 31
57 38 47 16 113 88 108 119 -3 22 -7 23 -110 26 -98 2 -108 1 -117 -17z"/>
<path d="M857 1154 c-15 -15 -5 -36 37 -77 33 -32 45 -52 51 -84 l7 -43 53 0
c33 0 57 5 64 14 8 9 11 46 9 103 l-3 88 -106 3 c-58 1 -108 -1 -112 -4z"/>
<path d="M1172 1148 c-7 -7 -12 -43 -12 -89 0 -103 6 -109 116 -109 120 0 124
3 124 100 0 115 5 110 -114 110 -66 0 -106 -4 -114 -12z"/>
<path d="M1487 1153 c-4 -3 -7 -39 -7 -79 l0 -73 33 6 c18 3 42 18 55 35 31
37 72 58 117 58 37 0 42 8 25 41 -10 17 -22 19 -114 19 -56 0 -106 -3 -109 -7z"/>
<path d="M1801 1141 c-6 -11 -11 -31 -11 -46 0 -30 37 -85 58 -85 19 0 92 -41
92 -52 0 -13 54 -9 74 5 14 10 16 26 14 102 l-3 90 -107 3 c-98 2 -108 1 -117
-17z"/>
<path d="M607 1120 c-14 -11 -28 -33 -32 -48 -5 -25 -9 -27 -43 -24 -30 3 -43
-2 -65 -24 -16 -15 -27 -38 -27 -53 0 -25 -2 -26 -44 -23 -38 3 -46 0 -65 -24
-22 -28 -22 -34 -19 -264 l3 -235 33 -63 33 -63 -14 -95 -14 -94 257 0 257 0
-13 91 -12 90 52 52 c95 96 184 206 191 236 8 39 -12 82 -48 99 -35 17 -83 3
-117 -33 -13 -14 -27 -25 -32 -25 -4 0 -8 81 -8 180 0 142 -3 187 -15 210 -17
33 -50 45 -95 36 -27 -5 -30 -3 -30 20 0 34 -42 74 -78 74 -16 0 -41 -9 -55
-20z m93 -46 c6 -14 10 -106 10 -205 0 -176 0 -179 21 -179 21 0 22 2 17 138
-3 76 -2 147 3 158 10 29 37 37 64 20 21 -14 22 -23 29 -228 4 -117 11 -217
16 -222 6 -6 31 11 64 42 57 54 84 63 110 36 36 -35 20 -63 -122 -214 -62 -65
-112 -126 -112 -134 0 -14 -23 -16 -188 -16 l-187 0 -11 33 c-7 17 -23 59 -38
92 -25 59 -26 65 -26 283 l0 222 25 12 c21 9 28 8 45 -7 17 -16 20 -31 20
-117 0 -91 1 -98 20 -98 19 0 20 7 20 148 0 155 4 172 45 172 40 0 45 -17 45
-156 0 -143 4 -164 29 -164 14 0 16 19 13 191 -3 207 -1 219 49 219 22 0 32
-6 39 -26z"/>
<path d="M1632 1007 c-12 -13 -22 -32 -22 -43 0 -28 -8 -34 -34 -24 -28 10
-80 -11 -95 -39 -7 -12 -11 -86 -11 -183 0 -90 -3 -173 -6 -186 -6 -22 -6 -22
-40 8 -59 52 -114 50 -150 -5 -27 -42 -12 -85 64 -172 37 -43 90 -101 118
-129 51 -51 52 -53 44 -96 -4 -23 -10 -64 -14 -90 l-6 -48 255 0 c293 0 263
-14 244 115 -11 75 -11 76 20 138 l32 62 6 235 6 235 -25 30 c-21 24 -33 30
-66 29 -36 -1 -41 1 -46 27 -10 49 -42 72 -92 66 -42 -4 -44 -4 -44 22 0 64
-93 96 -138 48z m87 -24 l24 -16 -5 -194 c-5 -179 -4 -193 12 -193 15 0 18 16
24 143 4 78 9 149 12 158 7 23 39 29 63 12 20 -13 21 -24 21 -164 0 -142 1
-149 20 -149 19 0 20 7 20 105 0 101 1 106 24 116 17 8 29 8 45 -1 22 -11 22
-13 19 -243 l-3 -232 -32 -62 c-18 -34 -33 -72 -33 -83 0 -19 -6 -20 -190 -20
-168 0 -190 2 -190 16 0 9 -39 57 -86 107 -154 162 -185 212 -152 245 23 23
58 12 107 -33 78 -73 77 -76 86 167 4 116 9 217 12 224 7 19 39 27 63 14 19
-10 20 -20 20 -165 0 -148 1 -155 20 -155 19 0 20 7 20 190 0 177 1 191 20
210 24 24 29 25 59 3z"/>
<path d="M223 853 c-23 -40 -12 -205 12 -181 3 3 4 50 3 104 -3 85 -5 96 -15
77z"/>
<path d="M950 812 l0 -58 48 0 c57 -1 108 -25 130 -65 l17 -29 108 0 c146 0
147 1 147 103 0 51 -5 88 -12 95 -9 9 -73 12 -225 12 l-213 0 0 -58z"/>
<path d="M1106 475 l-27 -35 62 0 c52 0 60 2 55 16 -3 9 -6 24 -6 35 0 14 -7
19 -29 19 -21 0 -36 -9 -55 -35z"/>
</g>
</svg>
